<svg id="Capa_1" enable-background="new 0 0 512 512" height="512" viewBox="0 0 512 512" width="512" xmlns="http://www.w3.org/2000/svg"><g><g><path d="m511.938 261.083c.033-1.692.062-3.385.062-5.083 0-48.715-13.526-95.346-38.782-135.625l-22.218-12.375.208-17.625c-4.501-5.288-9.224-10.43-14.189-15.395-48.352-48.351-112.639-74.98-181.019-74.98s-132.667 26.629-181.02 74.98c-11.039 11.04-20.932 22.918-29.648 35.478l1.668 15.542-19.579 14.458c-8.128 16.038-14.508 32.896-19.068 50.334l14.647 23.208-20.595 6.792c-1.582 11.573-2.405 23.326-2.405 35.208 0 44.716 11.392 87.679 32.794 125.583l22.206 7.417-2.331 22.583c6.825 8.881 14.259 17.384 22.311 25.437 48.353 48.351 112.64 74.98 181.02 74.98s132.667-26.629 181.02-74.98c24.878-24.879 43.988-53.984 56.697-85.687l3.283-22.333 6.615-7.667c2.597-9.91 4.602-20.007 5.997-30.25l-2.612-14.083z" fill="#ff936b"/><g><path d="m512 256c0-48.715-13.526-95.346-38.782-135.625l-22.218-12.375.208-17.625c-4.501-5.288-9.224-10.43-14.189-15.395-48.352-48.351-112.639-74.98-181.019-74.98v512c68.38 0 132.667-26.629 181.02-74.98 24.878-24.879 43.988-53.984 56.697-85.687l3.283-22.333 6.615-7.667c2.597-9.91 4.602-20.007 5.997-30.25l-2.612-14.083 4.938-15.917c.033-1.692.062-3.385.062-5.083z" fill="#ff7037"/></g><path d="m322.406 380.971c-9.909 24.772-33.552 40.779-60.232 40.779h-36.299c-8.284 0-15 6.716-15 15s6.716 15 15 15h36.299c39.019 0 73.595-23.409 88.086-59.637 9.909-24.773 33.552-40.78 60.232-40.78h83.224c3.916-9.769 7.222-19.784 9.899-30h-93.123c-39.018 0-73.595 23.409-88.086 59.638z" fill="#ffc178"/><g><path d="m410.492 321.333c-39.019 0-73.595 23.409-88.086 59.638-9.909 24.772-33.552 40.779-60.232 40.779h-6.174v30h6.174c39.019 0 73.595-23.409 88.086-59.637 9.909-24.773 33.552-40.78 60.232-40.78h83.224c3.916-9.769 7.222-19.784 9.899-30z" fill="#ff936b"/></g><path d="m337.165 145.819c-6.964 20.893-26.44 34.931-48.464 34.931h-7.701c-8.284 0-15 6.716-15 15s6.716 15 15 15h7.701c34.957 0 65.87-22.281 76.925-55.443 6.965-20.894 26.441-34.932 48.464-34.932h59.128c-6.555-10.454-13.904-20.477-22.01-30h-37.118c-34.955 0-65.869 22.281-76.925 55.444z" fill="#ff936b"/><path d="m223.019 370.156c12.91-18.074 33.877-28.864 56.089-28.864h7.018c8.284 0 15-6.716 15-15s-6.716-15-15-15h-7.018c-31.879 0-61.973 15.486-80.501 41.427-12.91 18.074-33.878 28.864-56.089 28.864h-109.724c5.876 10.407 12.517 20.425 19.875 30h89.849c31.878 0 61.971-15.486 80.501-41.427z" fill="#ffc178"/><g><path d="m286.125 311.292h-7.018c-7.86 0-15.611.946-23.107 2.753v31.258c7.334-2.615 15.139-4.011 23.107-4.011h7.018c8.284 0 15-6.716 15-15s-6.716-15-15-15z" fill="#ff936b"/></g><path d="m330.326 261.083c-33.598 0-66.705-11.359-93.225-31.985-31.759-24.702-71.408-38.306-111.643-38.306h-117.106c-2.571 9.829-4.558 19.843-5.947 30h123.054c33.598 0 66.706 11.359 93.225 31.985 31.759 24.702 71.408 38.306 111.643 38.306h179.286c1.346-9.878 2.13-19.89 2.326-30z" fill="#ffc178"/><g><path d="m330.326 261.083c-26.014 0-51.731-6.815-74.326-19.463v33.524c23.278 10.404 48.681 15.939 74.326 15.939h179.286c1.346-9.878 2.13-19.89 2.326-30z" fill="#ff936b"/></g><path d="m207.37 111.878c16.735-13.947 37.95-21.628 59.736-21.628h21.035c8.284 0 15-6.716 15-15s-6.716-15-15-15h-21.035c-28.791 0-56.827 10.15-78.942 28.581-16.735 13.946-37.95 21.627-59.736 21.627h-83.096c-6.675 9.618-12.66 19.636-17.912 30h101.008c28.79 0 56.825-10.15 78.942-28.58z" fill="#ffc178"/><g><path d="m288.142 60.25h-21.035c-3.719 0-7.424.173-11.106.507v30.177c3.673-.442 7.38-.684 11.106-.684h21.035c8.284 0 15-6.716 15-15s-6.716-15-15-15z" fill="#ff936b"/></g><g fill="#ff936b"><circle cx="276" cy="131" r="15"/><circle cx="276" cy="131" r="15"/><circle cx="416" cy="196" r="15"/></g></g><ellipse cx="136" cy="296" fill="#ffc178" rx="65" ry="45"/></g></svg>